<mxfile host="app.diagrams.net" modified="2023-05-13T07:05:06.117Z" agent="Mozilla/5.0 (Windows NT 10.0; Win64; x64; rv:109.0) Gecko/20100101 Firefox/113.0" version="21.3.0" etag="giaMqdsonosgBSFNmTW-" type="github">
  <diagram name="Seite-1" id="-_Xw1XsHksowQYt9IWcd">
    <mxGraphModel>
      <root>
        <mxCell id="0" />
        <mxCell id="1" parent="0" />
      </root>
    </mxGraphModel>
  </diagram>
</mxfile>
